# xmcd
#
# Track frame offsets:
#	150
#	13850
#	26442
#	36732
#	49942
#	63295
#	75917
#	89352
#	101315
#	115322
#	127220
#	140122
#
# Disc length: 2002 seconds
#
# Revision: 0
# Processed by: cddbd v1.5.2PL0 Copyright (c) Steve Scherf et al.
# Submitted via: EasyCDDAExtractor 16.0.6.1
#
DISCID=a407d00c
DTITLE=Μπουρνέλης Λεονάρδος - Τα ζημιάρικα-LP, Λ. Μπουρνέλης
DYEAR=1992
DGENRE=Τσιφτετέλια
TTITLE0=Άνευ ερμηνευτού - Τσιφτετέλι αρ. 1 [σόλο, Λ. Μπουρνέλης]
TTITLE1=Άνευ ερμηνευτού - Τσιφτετέλι αρ. 2 [σόλο, Λ. Μπουρνέλης]
TTITLE2=Μπουρνέλης Λεονάρδος - Το δεκαεφτάρικο [Λ. Μπουρνέλης-Σπ. Κεφαλόπουλος
TTITLE2=]
TTITLE3=Άνευ ερμηνευτού - Τσιφτετέλι αρ. 3 [σόλο, Λ. Μπουρνέλης]
TTITLE4=Άνευ ερμηνευτού - Τσιφτετέλι αρ. 4 [σόλο, Λ. Μπουρνέλης]
TTITLE5=Μπουρνέλης Λεονάρδος - Να μην σε ματιάσω φτου σου [Ηλίας Σούκας-Χ. Χατ
TTITLE5=ζάκης]
TTITLE6=Άνευ ερμηνευτού - Τσιφτετέλι αρ. 5 [σόλο, Λ. Μπουρνέλης]
TTITLE7=Μπουρνέλης Λεονάρδος - Μαύρο γεμελή [Λ. Μπουρνέλης-Σπ. Κεφαλόπουλος]
TTITLE8=Άνευ ερμηνευτού - Τσιφτετέλι αρ. 6 [σόλο, Λ. Μπουρνέλης]
TTITLE9=Άνευ ερμηνευτού - Τσιφτετέλι αρ. 7 [σόλο, Λ. Μπουρνέλης]
TTITLE10=Μπουρνέλης Λεονάρδος - Με πουλάς και μ' αγοράζεις [Λ. Μπουρνέλης-Σπ. 
TTITLE10=Κεφαλόπουλος]
TTITLE11=Μπουρνέλης Λεονάρδος - Και πάλι φίλοι είμαστε [Χρ. Παπαδόπουλος-Λ. Μπ
TTITLE11=ουρνέλης]
EXTD=
EXTT0=
EXTT1=
EXTT2=
EXTT3=
EXTT4=
EXTT5=
EXTT6=
EXTT7=
EXTT8=
EXTT9=
EXTT10=
EXTT11=
PLAYORDER=
